PathFileType	4	(x/y/z)	S05_SL_Cal_T01
DataRate	CameraRate	NumFrames	NumMarkers	Units	OrigDataRate	OrigDataStartFrame	OrigNumFrames
240	240	6	50	mm	240	1	2400
Frame#	Time	Sternum			R.Acromium			L.Acromium			Top.Head			R.ASIS			L.ASIS			R.PSIS			L.PSIS			R.Great.Tro			L.Great.Tro			R.Iliac.Crest			L.Iliac.Crest			V.Sacral			R.Thigh.Upper.Post			R.Thigh.Lower.Ant			R.Thigh.Lower.Post			R.Thigh.Upper.Ant			R.Knee.Lat			R.Knee.Med			R.Shank.Upper.Post			R.Shank.Lower.Ant			R.Shank.Lower.Post			R.Shank.Upper.Ant			R.Ankle.Lat			R.Ankle.Med			R.Heel.Upper			R.Heel.Med			R.Heel.Lat			R.Toe.Lat			R.Toe.Med			R.Toe.Tip			L.Thigh.Upper.Post			L.Thigh.Lower.Ant			L.Thigh.Lower.Post			L.Thigh.Upper.Ant			L.Knee.Lat			L.Shank.Upper.Post			L.Shank.Lower.Ant			L.Shank.Lower.Post			L.Shank.Upper.Ant			L.Ankle.Lat			L.Ankle.Med			L.Heel.Upper			L.Heel.Med			L.Heel.Lat			L.Toe.Lat			L.Toe.Med			L.Toe.Tip			Cervical.Spine			Back			
		X1	Y1	Z1	X2	Y2	Z2	X3	Y3	Z3	X4	Y4	Z4	X5	Y5	Z5	X6	Y6	Z6	X7	Y7	Z7	X8	Y8	Z8	X9	Y9	Z9	X10	Y10	Z10	X11	Y11	Z11	X12	Y12	Z12	X13	Y13	Z13	X14	Y14	Z14	X15	Y15	Z15	X16	Y16	Z16	X17	Y17	Z17	X18	Y18	Z18	X19	Y19	Z19	X20	Y20	Z20	X21	Y21	Z21	X22	Y22	Z22	X23	Y23	Z23	X24	Y24	Z24	X25	Y25	Z25	X26	Y26	Z26	X27	Y27	Z27	X28	Y28	Z28	X29	Y29	Z29	X30	Y30	Z30	X31	Y31	Z31	X32	Y32	Z32	X33	Y33	Z33	X34	Y34	Z34	X35	Y35	Z35	X36	Y36	Z36	X37	Y37	Z37	X38	Y38	Z38	X39	Y39	Z39	X40	Y40	Z40	X41	Y41	Z41	X42	Y42	Z42	X43	Y43	Z43	X44	Y44	Z44	X45	Y45	Z45	X46	Y46	Z46	X47	Y47	Z47	X48	Y48	Z48	X49	Y49	Z49	X50	Y50	Z50	

1	0	535.26	1287.5	337.99	418.53	1532.8	496.39	412.82	1547.1	157.94	401.7	1849.9	334.91	486.56	1017.3	465.71	499.24	1024.3	214.58	289.13	1049.5	370.56	295.89	1051.9	279.4	395.11	941.1	521.47	403.95	950.54	137.3	398.99	1106.4	500.47	412.06	1106	166.15	277.64	1013.6	335.82	425.17	718.86	529.13	467.85	638.57	482.32	401.65	632.57	512.38	487.63	724.75	499.28	385.55	537.61	494.49	380.19	513.17	365.07	297.76	302.49	509.93	359.26	236.81	512.97	296.55	225.73	500.05	361.51	314.59	520.28	347.13	125.48	505.08	348.53	139.88	417.22	272.65	75.087	456.6	280.88	41.48	429.22	283.47	48.477	494.17	452.05	36.793	534.11	478.66	40.325	412.07	546.37	56.946	452.58	384.99	715.88	125.77	455.73	633.87	146.98	384.94	620.57	137.42	462.88	724.27	135.26	387.01	528.25	139.59	315.69	332.7	121.61	380.91	273.5	123.09	310.67	260.85	134.12	381.09	344.33	116.69	340.82	116.59	133.31	368.34	127.59	221.52	278.71	68.732	178.21	289.37	43.9	210.71	283.66	41.399	149.46	468.03	39.361	103.74	485.95	50.023	224.02	553.27	59.014	171.93	358.95	1579.4	334.66	272.71	1294	332.64
2	0.0041667	535.22	1287.4	337.92	418.52	1532.9	496.43	411.81	1547.1	158.1	401.69	1849.9	334.96	486.55	1017.3	465.66	499.24	1024.3	214.57	289.2	1049.5	370.59	295.88	1051.9	279.44	395.12	941.17	521.52	403.95	950.56	137.32	399.03	1106.4	500.48	412.03	1106	166.15	277.67	1013.6	335.82	425.15	718.89	529.14	467.86	638.57	482.3	401.63	632.6	512.41	487.66	724.74	499.26	385.52	537.63	494.47	380.2	513.17	365.06	297.74	302.54	510.06	359.32	236.77	512.9	296.31	225.81	500.05	361.57	314.57	520.29	347.12	125.51	505.07	348.57	139.91	417.21	272.75	75.219	456.95	280.87	41.507	429.27	283.46	48.507	494.22	452.06	36.856	534.15	478.67	40.346	412.11	546.33	56.967	452.6	384.99	715.91	125.79	455.72	633.84	146.99	384.93	620.6	137.45	462.88	724.26	135.24	387.02	528.27	139.61	315.67	332.82	121.57	380.9	273.46	123.15	310.71	260.86	134.16	381.1	344.31	116.69	340.75	116.65	133.3	368.35	127.65	221.51	278.69	68.73	178.23	289.35	43.914	210.73	283.65	41.414	149.5	468.05	39.382	103.76	485.97	50.065	224.02	553.25	59.013	171.92	358.98	1579.5	334.67	272.76	1294.1	332.66
3	0.0083333	535.18	1287.3	337.85	418.51	1532.9	496.47	410.82	1547	158.25	401.67	1849.9	335.01	486.53	1017.2	465.61	499.24	1024.3	214.55	289.27	1049.5	370.63	295.87	1051.9	279.47	395.14	941.24	521.57	403.94	950.57	137.34	399.07	1106.4	500.5	411.99	1106.1	166.15	277.7	1013.7	335.83	425.13	718.92	529.15	467.86	638.56	482.28	401.61	632.64	512.43	487.69	724.72	499.23	385.48	537.65	494.45	380.21	513.16	365.05	297.72	302.59	510.18	359.38	236.74	512.84	296.08	225.9	500.05	361.63	314.56	520.3	347.12	125.54	505.05	348.61	139.95	417.2	272.85	75.354	457.3	280.85	41.534	429.32	283.44	48.537	494.26	452.06	36.918	534.18	478.69	40.366	412.15	546.29	56.988	452.62	384.99	715.93	125.81	455.72	633.82	146.99	384.93	620.63	137.48	462.88	724.24	135.23	387.03	528.29	139.64	315.65	332.94	121.54	380.9	273.42	123.21	310.75	260.87	134.2	381.11	344.29	116.7	340.68	116.7	133.29	368.35	127.71	221.5	278.66	68.728	178.26	289.32	43.927	210.76	283.63	41.428	149.54	468.08	39.403	103.78	485.99	50.105	224.03	553.23	59.013	171.9	359.01	1579.5	334.68	272.81	1294.2	332.68
4	0.0125	535.15	1287.2	337.79	418.5	1533	496.51	409.88	1546.9	158.39	401.66	1850	335.06	486.51	1017.2	465.56	499.23	1024.3	214.54	289.33	1049.5	370.66	295.86	1052	279.51	395.15	941.3	521.61	403.93	950.58	137.36	399.1	1106.4	500.51	411.96	1106.1	166.15	277.73	1013.7	335.83	425.11	718.95	529.16	467.87	638.55	482.27	401.59	632.67	512.45	487.72	724.71	499.21	385.45	537.68	494.43	380.22	513.16	365.03	297.69	302.63	510.31	359.44	236.71	512.77	295.85	225.98	500.05	361.68	314.55	520.31	347.12	125.56	505.04	348.65	139.98	417.19	272.95	75.488	457.65	280.84	41.559	429.37	283.42	48.567	494.31	452.07	36.977	534.2	478.7	40.385	412.18	546.25	57.008	452.64	384.98	715.96	125.83	455.71	633.79	147	384.92	620.66	137.51	462.88	724.23	135.22	387.04	528.31	139.66	315.63	333.06	121.51	380.89	273.38	123.27	310.79	260.88	134.23	381.13	344.27	116.7	340.61	116.75	133.28	368.36	127.77	221.5	278.64	68.725	178.29	289.3	43.94	210.78	283.62	41.442	149.58	468.1	39.423	103.79	486.01	50.145	224.04	553.21	59.013	171.88	359.04	1579.5	334.69	272.85	1294.2	332.7
5	0.016667	535.11	1287.2	337.73	418.49	1533.1	496.55	409.01	1546.8	158.53	401.64	1850	335.11	486.49	1017.1	465.52	499.23	1024.3	214.52	289.39	1049.5	370.69	295.85	1052	279.54	395.17	941.36	521.65	403.92	950.59	137.37	399.13	1106.4	500.53	411.93	1106.2	166.15	277.75	1013.7	335.83	425.09	718.98	529.17	467.87	638.55	482.25	401.57	632.69	512.47	487.75	724.7	499.19	385.41	537.69	494.41	380.23	513.16	365.02	297.67	302.68	510.42	359.49	236.68	512.71	295.64	226.06	500.05	361.73	314.54	520.32	347.11	125.59	505.03	348.69	140.01	417.18	273.05	75.62	458	280.83	41.584	429.42	283.41	48.595	494.35	452.08	37.033	534.23	478.71	40.404	412.21	546.22	57.027	452.66	384.98	715.98	125.84	455.7	633.77	147.01	384.92	620.68	137.53	462.88	724.21	135.21	387.05	528.32	139.68	315.61	333.16	121.48	380.89	273.35	123.32	310.83	260.89	134.26	381.14	344.25	116.7	340.54	116.8	133.27	368.36	127.82	221.49	278.62	68.723	178.32	289.27	43.953	210.81	283.61	41.456	149.62	468.12	39.443	103.81	486.03	50.182	224.04	553.19	59.013	171.87	359.07	1579.6	334.7	272.89	1294.3	332.72
6	0.020833	535.07	1287.1	337.68	418.48	1533.1	496.59	408.22	1546.8	158.64	401.63	1850	335.14	486.47	1017.1	465.48	499.23	1024.3	214.51	289.44	1049.6	370.72	295.84	1052	279.57	395.18	941.42	521.69	403.91	950.61	137.39	399.16	1106.5	500.54	411.89	1106.2	166.15	277.77	1013.7	335.84	425.06	719	529.18	467.87	638.54	482.24	401.55	632.72	512.49	487.77	724.68	499.18	385.38	537.71	494.39	380.25	513.16	365.01	297.64	302.72	510.53	359.54	236.65	512.66	295.45	226.14	500.05	361.78	314.53	520.33	347.11	125.61	505.02	348.72	140.03	417.17	273.15	75.748	458.33	280.81	41.606	429.47	283.39	48.622	494.39	452.08	37.085	534.26	478.72	40.421	412.24	546.18	57.044	452.67	384.98	716	125.86	455.7	633.75	147.01	384.91	620.71	137.56	462.87	724.2	135.2	387.06	528.34	139.7	315.59	333.26	121.45	380.88	273.32	123.38	310.86	260.9	134.29	381.15	344.23	116.71	340.48	116.84	133.26	368.37	127.87	221.48	278.59	68.72	178.34	289.25	43.964	210.83	283.6	41.468	149.65	468.14	39.461	103.82	486.05	50.217	224.05	553.17	59.013	171.85	359.09	1579.6	334.71	272.93	1294.3	332.74
